<?xml version="1.0" encoding="utf-8"?>
<svg viewBox="-9.025 0 509.025 257.22" xmlns="http://www.w3.org/2000/svg" xmlns:bx="https://boxy-svg.com">
  <defs>
    <style bx:fonts="Josefin Sans">@import url(https://fonts.googleapis.com/css2?family=Josefin+Sans%3Aital%2Cwght%400%2C100%3B0%2C200%3B0%2C300%3B0%2C400%3B0%2C500%3B0%2C600%3B0%2C700%3B1%2C100%3B1%2C200%3B1%2C300%3B1%2C400%3B1%2C500%3B1%2C600%3B1%2C700&amp;display=swap);</style>
    <style bx:fonts="Kalam">@import url(https://fonts.googleapis.com/css2?family=Kalam%3Aital%2Cwght%400%2C300%3B0%2C400%3B0%2C700&amp;display=swap);</style>
  </defs>
  <rect x="116.336" y="19.016" width="357.624" height="210.506" fill="#e6e6e6" style="opacity: 1;"/>
  <rect x="147.96" y="47.284" width="129.107" height="121.93" fill="#fff" style="opacity: 1;"/>
  <rect x="325.354" y="49.648" width="129.107" height="148.092" fill="#fff" style="opacity: 1;"/>
  <ellipse cx="221.516" cy="241.859" rx="23.127" ry="3.036" fill="#e6e6e6" style="opacity: 1;"/>
  <ellipse cx="76.411" cy="238.822" rx="53.079" ry="2.336" fill="#e6e6e6" style="opacity: 1;"/>
  <rect x="116.184" width="357.624" height="13.964" fill="#6615bf" y="18.829" style="opacity: 1;"/>
  <circle cx="-123.781" cy="-152.369" r="5.54" fill="#e6e6e6" style="opacity: 1;" transform="matrix(0.508294, 0, 0, 0.467167, 190.391006, 97.151299)"/>
  <circle cx="-102.753" cy="-152.369" r="5.54" fill="#e6e6e6" style="opacity: 1;" transform="matrix(0.508294, 0, 0, 0.467167, 190.391006, 97.151299)"/>
  <circle cx="-81.725" cy="-152.369" r="5.54" fill="#e6e6e6" style="opacity: 1;" transform="matrix(0.508294, 0, 0, 0.467167, 190.391006, 97.151299)"/>
  <path d="M 425.997 89.371 L 425.214 89.371 L 425.214 69.68 C 425.214 63.385 419.663 58.283 412.814 58.283 L 367.423 58.283 C 360.574 58.283 355.023 63.385 355.023 69.68 L 355.023 177.708 C 355.023 184.002 360.574 189.105 367.423 189.105 L 412.814 189.105 C 419.663 189.105 425.214 184.002 425.214 177.708 L 425.214 103.388 L 425.997 103.388 L 425.997 89.371 Z" fill="#3f3d56" style="opacity: 1;"/>
  <path d="M 412.806 61.248 L 406.881 61.248 C 408.062 63.908 405.933 66.819 402.808 66.819 L 376.803 66.819 C 373.678 66.819 371.55 63.908 372.73 61.248 L 367.196 61.248 C 362.082 61.248 357.936 65.058 357.936 69.759 L 357.936 177.629 C 357.936 182.329 362.082 186.14 367.196 186.14 L 412.806 186.14 C 417.92 186.14 422.067 182.329 422.067 177.629 L 422.067 69.759 C 422.067 65.058 417.92 61.248 412.806 61.248 Z" fill="#fff" style="opacity: 1;"/>
  <rect x="167.734" y="124.305" width="89.736" height="3.762" fill="#e6e6e6" style="opacity: 1;"/>
  <rect x="167.734" y="136.451" width="89.736" height="3.762" fill="#6615bf" style="opacity: 1;"/>
  <rect x="167.734" y="148.597" width="89.736" height="3.762" fill="#e6e6e6" style="opacity: 1;"/>
  <rect x="364.316" y="132.513" width="52.387" height="3.762" fill="#e6e6e6" style="opacity: 1;"/>
  <rect x="364.316" y="144.192" width="52.387" height="3.762" fill="#e6e6e6" style="opacity: 1;"/>
  <rect x="364.316" y="155.871" width="52.387" height="3.762" fill="#e6e6e6" style="opacity: 1;"/>
  <rect x="430.892" y="308.313" width="8.024" height="8.731" fill="#3f3d56" style="opacity: 1;" transform="matrix(0, 1, -1, 0, 730.492981, -224.627869)"/>
  <rect x="417.963" y="308.313" width="8.024" height="8.731" fill="#6615bf" style="opacity: 1;" transform="matrix(0, 1, -1, 0, 716.426147, -211.699234)"/>
  <rect x="405.035" y="308.313" width="8.024" height="8.731" fill="#3f3d56" style="opacity: 1;" transform="matrix(0, 1, -1, 0, 702.359314, -198.770599)"/>
  <rect x="392.106" y="308.313" width="8.024" height="8.731" fill="#3f3d56" style="opacity: 1;" transform="matrix(0, 1, -1, 0, 688.292542, -185.84198)"/>
  <rect x="379.178" y="308.313" width="8.024" height="8.731" fill="#3f3d56" style="opacity: 1;" transform="matrix(0, 1, -1, 0, 674.225708, -172.913315)"/>
  <path d="M 201.035 147.577 L 200.658 148.27 L 199.528 143.076 C 199.528 143.076 198.021 137.537 201.035 137.537 C 204.048 137.537 203.295 143.076 203.295 143.076 L 203.295 146.885 L 201.035 147.577 Z" style="fill: rgb(255, 184, 184); opacity: 1;"/>
  <path d="M 250.462 146.868 L 250.838 147.561 L 251.969 142.368 C 251.969 142.368 253.475 136.828 250.462 136.828 C 247.448 136.828 248.201 142.368 248.201 142.368 L 248.201 146.176 L 250.462 146.868 Z" style="fill: rgb(255, 184, 184); opacity: 1;"/>
  <polygon points="217.61 186.514 213.09 212.135 215.35 237.064 220.624 234.987 219.871 216.29 225.145 201.402 226.275 219.06 224.015 237.41 230.795 238.103 235.693 200.364 235.316 187.553 217.61 186.514" fill="#2f2e41" style="opacity: 1;"/>
  <path d="M 217.61 233.949 L 214.973 237.757 L 214.973 246.267 C 214.973 246.773 215.373 247.205 215.917 247.286 C 217.209 247.481 219.46 247.619 220.247 246.413 C 221.377 244.682 220.624 240.873 220.624 240.873 C 220.624 240.873 222.13 238.103 221.377 236.026 C 220.624 233.949 219.871 233.602 219.871 233.602 L 217.61 233.949 Z" fill="#2f2e41" style="opacity: 1;"/>
  <path d="M 228.912 237.411 L 229.665 238.45 C 229.665 238.45 230.795 239.488 230.042 240.181 C 229.489 240.719 228.985 241.297 228.535 241.912 C 228.535 241.912 224.391 242.95 224.391 241.566 L 224.391 237.064 L 228.912 237.411 Z" fill="#2f2e41" style="opacity: 1;"/>
  <circle cx="73.113" cy="121.145" r="9.824" style="fill: rgb(255, 184, 184); opacity: 1;" transform="matrix(0.508294, 0, 0, 0.467167, 190.391006, 97.151299)"/>
  <polygon points="224.203 155.18 223.826 161.759 230.607 162.105 230.23 155.526 224.203 155.18" style="fill: rgb(255, 184, 184); opacity: 1;"/>
  <path d="M 231.549 162.278 L 230.479 159.877 C 230.479 159.877 225.521 158.123 224.014 159.854 L 223.261 161.932 L 217.234 160.547 L 213.843 167.471 L 216.857 187.206 C 216.857 187.206 224.767 196.555 235.316 187.554 L 238.329 168.857 L 236.069 161.586 L 231.549 162.278 Z" fill="#575a89" style="opacity: 1;"/>
  <polygon points="235.316 162.971 236.069 161.586 243.604 157.43 248.202 144.921 251.76 146.323 247.747 161.239 236.823 170.587 235.316 162.971" fill="#575a89" style="opacity: 1;"/>
  <polygon points="217.987 161.239 217.234 160.547 209.322 156.046 203.672 145.659 199.151 147.043 204.048 159.854 216.104 168.857 217.987 161.239" fill="#575a89" style="opacity: 1;"/>
  <path d="M 231.26 146.717 L 232.077 146.342 L 230.852 145.967 L 230.852 145.591 C 230.852 145.591 224.728 143.34 223.912 147.092 C 221.748 149.764 221.748 153.424 223.912 156.097 L 223.912 157.223 L 230.444 157.973 L 231.26 155.721 C 231.26 155.721 235.343 148.968 231.26 146.717 Z" fill="#2f2e41" style="opacity: 1;"/>
  <path d="M 81.832 186.921 L 80.38 187.588 C 80.38 187.588 74.575 190.034 76.268 191.367 C 77.961 192.701 82.557 190.034 82.557 190.034 L 83.525 188.922 L 81.832 186.921 Z" fill="#ffb8b8" style="opacity: 1;"/>
  <polygon points="124.296 186.589 119.81 214.267 113.037 233.609 109.409 232.053 112.795 205.596 103.119 198.037 103.845 186.921 124.296 186.589" fill="#2f2e41" style="opacity: 1;"/>
  <path d="M 108.925 232.72 C 108.925 232.72 113.037 230.719 113.279 233.61 L 112.795 236.5 C 112.795 236.5 114.246 241.613 109.408 240.502 C 104.57 239.39 107.957 236.055 107.957 236.055 L 108.925 232.72 Z" fill="#2f2e41" style="opacity: 1;"/>
  <path d="M 106.264 195.592 L 103.119 198.037 C 103.119 198.037 103.119 213.156 105.296 215.379 C 107.473 217.602 121.261 228.941 121.745 229.385 C 122.229 229.83 124.406 224.939 124.406 224.939 L 111.344 210.932 L 112.311 202.261 L 106.264 195.592 Z" fill="#2f2e41" style="opacity: 1;"/>
  <path d="M 122.955 224.272 C 122.955 224.272 126.825 223.605 126.825 226.05 C 126.873 227.984 127.035 229.913 127.309 231.831 C 127.309 231.831 128.276 239.612 125.132 238.501 C 121.987 237.389 120.778 229.608 120.778 229.608 C 121.07 228.961 121.578 228.416 122.229 228.051 C 123.197 227.606 122.955 224.272 122.955 224.272 Z" fill="#2f2e41" style="opacity: 1;"/>
  <polygon points="110.86 153.571 111.586 161.798 109.65 164.91 104.329 160.241 103.845 154.016 110.86 153.571" fill="#ffb8b8" style="opacity: 1;"/>
  <circle cx="-165.034" cy="115.063" r="11.422" fill="#ffb8b8" style="opacity: 1;" transform="matrix(0.508294, 0, 0, 0.467167, 190.391006, 97.151299)"/>
  <polygon points="108.925 161.576 111.344 155.128 115.698 159.575 123.68 187.81 117.633 191.145 114.972 187.587 114.488 192.256 102.635 190.033 101.668 160.241 104.085 157.112 108.925 161.576" fill="#d0cde1" style="opacity: 1;"/>
  <polygon points="105.538 193.146 104.087 157.129 100.942 159.352 95.136 162.909 99.007 175.582 100.216 188.922 105.538 193.146" fill="#2f2e41" style="opacity: 1;"/>
  <polygon points="96.83 163.131 95.136 162.909 90.298 176.027 80.622 187.143 84.251 190.7 95.378 180.695 99.491 172.469 96.83 163.131" fill="#2f2e41" style="opacity: 1;"/>
  <path d="M 123.247 187.124 L 122.917 188.585 C 122.917 188.585 121.407 194.287 123.595 193.893 C 125.784 193.499 126.354 188.53 126.354 188.53 L 126.005 187.143 L 123.247 187.124 Z" fill="#ffb8b8" style="opacity: 1;"/>
  <polygon points="110.965 154.767 122.955 159.13 121.503 172.469 124.406 187.143 121.503 190.033 110.77 156.657 110.965 154.767" fill="#2f2e41" style="opacity: 1;"/>
  <path d="M 106.809 141.942 L 108.513 141.16 L 108.513 141.942 L 109.649 141.42 L 109.649 142.726 C 109.649 142.726 113.91 145.597 113.058 148.991 C 112.206 152.384 112.206 152.645 112.206 152.645 C 112.206 152.645 111.129 146.191 106.868 147.236 C 102.608 148.28 102.265 148.468 101.129 151.34 L 100.821 152.571 C 100.821 152.571 96.016 142.464 106.809 141.942 Z" fill="#2f2e41" style="opacity: 1;"/>
  <polygon points="121.261 159.13 123.197 159.13 126.341 174.693 126.341 188.254 122.471 187.587 119.326 167.134 121.261 159.13" fill="#2f2e41" style="opacity: 1;"/>
  <rect x="25.129" y="192.042" width="71.324" height="45.554" fill="#6615bf" style="opacity: 1;"/>
  <path d="M 60.791 200.931 C 49.159 200.931 41.888 212.504 47.705 221.763 C 53.521 231.022 68.061 231.022 73.878 221.763 C 75.204 219.652 75.902 217.257 75.902 214.819 C 75.878 207.158 69.127 200.953 60.791 200.931 Z M 60.791 205.097 C 64.281 205.097 66.462 208.569 64.717 211.347 C 62.972 214.125 58.61 214.125 56.865 211.347 C 56.467 210.713 56.258 209.995 56.258 209.264 C 56.266 206.965 58.291 205.105 60.791 205.097 Z M 60.791 225.155 C 57.155 225.14 53.762 223.476 51.725 220.708 C 51.797 217.93 57.769 216.402 60.791 216.402 C 63.813 216.402 69.785 217.93 69.858 220.708 C 67.818 223.473 64.426 225.137 60.791 225.155 Z" fill="#fff" style="opacity: 1;"/>
  <rect x="251.28" y="121.937" width="0.956" height="100.873" fill="#fff" style="opacity: 1;" transform="matrix(0.529623, -0.848233, 0.886861, 0.467758, -73.695358, 217.811386)"/>
  <rect x="212.117" y="164.725" width="101.141" height="0.953" fill="#fff" style="opacity: 1;" transform="matrix(0.884546, -0.466453, 0.530961, 0.850529, -107.56221, 66.914497)"/>
  <rect x="427.406" y="161.715" width="0.976" height="39.211" fill="#fff" style="opacity: 1;" transform="matrix(0.736265, -0.676693, 0.738888, 0.679103, -58.857433, 263.454437)"/>
  <rect x="408.218" y="180.835" width="39.351" height="0.973" fill="#fff" style="opacity: 1;" transform="matrix(0.736265, -0.676693, 0.738888, 0.679103, -58.857433, 263.454437)"/>
  <path d="M 400.555 99.829 C 399.702 99.533 398.766 99.276 397.767 99.061 C 398.093 98.024 398.361 97.02 398.549 96.08 C 399.231 92.65 398.885 90.397 397.547 89.564 C 397.211 89.354 396.826 89.249 396.401 89.249 C 395.772 89.249 395.057 89.489 394.285 89.936 C 393.999 89.692 393.645 89.558 393.28 89.557 C 392.37 89.557 391.633 90.352 391.633 91.332 C 391.633 91.551 391.674 91.758 391.742 91.953 C 391.108 92.574 390.459 93.293 389.806 94.096 C 387.349 91.078 384.951 89.25 383.21 89.25 C 382.786 89.25 382.4 89.355 382.065 89.564 C 380.726 90.397 380.38 92.651 381.063 96.08 C 381.251 97.021 381.519 98.024 381.844 99.062 C 380.845 99.276 379.909 99.533 379.057 99.829 C 375.961 100.906 374.324 102.356 374.324 104.023 C 374.324 105.166 375.096 106.208 376.58 107.098 C 376.549 107.234 376.527 107.375 376.527 107.523 C 376.527 108.503 377.265 109.298 378.175 109.298 C 378.788 109.298 379.317 108.932 379.6 108.396 C 380.302 108.617 381.053 108.813 381.844 108.983 C 381.518 110.02 381.251 111.023 381.063 111.964 C 380.38 115.395 380.727 117.647 382.065 118.481 C 382.4 118.689 382.786 118.795 383.21 118.795 C 384.951 118.795 387.349 116.967 389.806 113.948 C 392.263 116.967 394.661 118.796 396.401 118.796 C 396.826 118.796 397.211 118.689 397.546 118.482 C 398.566 117.847 399.008 116.387 398.86 114.214 C 399.452 113.924 399.831 113.293 399.831 112.598 C 399.834 111.669 399.161 110.897 398.293 110.834 C 398.136 110.211 397.962 109.593 397.767 108.984 C 398.766 108.769 399.703 108.513 400.555 108.216 C 403.651 107.139 405.287 105.689 405.287 104.023 C 405.287 102.356 403.651 100.906 400.555 99.829 Z M 392.354 92.801 C 392.619 92.995 392.937 93.11 393.28 93.11 C 394.19 93.11 394.928 92.314 394.928 91.334 C 394.928 91.155 394.896 90.986 394.85 90.824 C 395.448 90.489 395.974 90.316 396.401 90.316 C 396.655 90.316 396.868 90.371 397.054 90.487 C 397.944 91.043 398.142 93.049 397.583 95.857 C 397.394 96.804 397.121 97.818 396.786 98.867 C 395.476 98.634 394.154 98.471 392.827 98.382 C 392.091 97.185 391.299 96.029 390.454 94.918 C 391.05 94.175 391.684 93.468 392.354 92.801 Z M 393.565 106.364 C 393.154 107.131 392.724 107.888 392.275 108.631 C 390.63 108.728 388.982 108.728 387.337 108.631 C 386.889 107.888 386.459 107.131 386.047 106.364 C 385.637 105.592 385.245 104.81 384.873 104.017 C 385.617 102.437 386.44 100.9 387.337 99.413 C 388.982 99.317 390.63 99.317 392.275 99.413 C 393.172 100.9 393.994 102.437 394.74 104.017 C 394.368 104.81 393.976 105.593 393.565 106.364 Z M 395.281 105.21 C 395.706 106.175 396.094 107.158 396.445 108.156 C 395.469 108.327 394.485 108.455 393.5 108.542 C 393.811 108.008 394.119 107.459 394.421 106.896 C 394.718 106.34 395.004 105.777 395.281 105.21 Z M 391.591 109.731 C 391.029 110.612 390.433 111.47 389.806 112.301 C 389.179 111.47 388.584 110.612 388.02 109.731 C 388.61 109.756 389.204 109.769 389.806 109.769 C 390.407 109.769 391.003 109.756 391.591 109.731 Z M 386.113 108.542 C 385.126 108.455 384.144 108.327 383.167 108.156 C 383.497 107.216 383.884 106.229 384.331 105.209 C 384.608 105.777 384.895 106.339 385.192 106.895 C 385.493 107.459 385.801 108.007 386.112 108.542 L 386.113 108.542 Z M 384.334 102.83 C 383.91 101.866 383.521 100.885 383.168 99.888 C 384.144 99.718 385.126 99.589 386.112 99.503 C 385.801 100.037 385.493 100.586 385.191 101.149 C 384.895 101.704 384.61 102.264 384.334 102.83 Z M 388.02 98.314 C 388.584 97.432 389.179 96.575 389.806 95.744 C 390.433 96.575 391.029 97.432 391.591 98.314 C 391.003 98.289 390.407 98.276 389.806 98.276 C 389.204 98.276 388.61 98.289 388.02 98.314 Z M 394.421 101.149 C 394.124 100.594 393.817 100.045 393.5 99.502 C 394.485 99.589 395.468 99.717 396.444 99.888 C 396.091 100.884 395.703 101.866 395.278 102.829 C 395.004 102.27 394.721 101.71 394.421 101.149 Z M 382.029 95.857 C 381.47 93.049 381.668 91.042 382.559 90.487 C 382.745 90.371 382.958 90.315 383.21 90.315 C 384.515 90.315 386.718 91.899 389.158 94.917 C 388.361 95.96 387.564 97.121 386.785 98.38 C 385.403 98.478 384.073 98.642 382.827 98.867 C 382.492 97.818 382.218 96.804 382.029 95.857 Z M 379.805 107.344 C 379.721 106.447 379.028 105.746 378.175 105.746 C 377.766 105.746 377.396 105.913 377.107 106.18 C 375.952 105.497 375.312 104.747 375.312 104.023 C 375.312 102.555 377.928 100.978 382.177 100.08 C 382.644 101.421 383.174 102.737 383.765 104.023 C 383.174 105.307 382.644 106.623 382.177 107.966 C 381.378 107.799 380.586 107.591 379.805 107.344 Z M 383.21 117.73 C 382.958 117.73 382.745 117.674 382.558 117.558 C 381.381 116.824 381.422 113.593 382.825 109.177 C 384.073 109.402 385.402 109.567 386.786 109.665 C 387.522 110.86 388.313 112.017 389.158 113.128 C 386.718 116.146 384.514 117.73 383.21 117.73 Z M 397.329 111.086 C 396.837 111.408 396.536 111.981 396.536 112.597 C 396.536 113.461 397.109 114.181 397.868 114.339 C 397.973 116.012 397.695 117.157 397.052 117.558 C 396.866 117.674 396.654 117.73 396.401 117.73 C 395.097 117.73 392.894 116.146 390.454 113.128 C 391.298 112.017 392.091 110.86 392.827 109.665 C 394.154 109.573 395.476 109.41 396.787 109.177 C 396.997 109.841 397.179 110.48 397.329 111.086 Z M 397.435 107.965 C 396.967 106.623 396.437 105.307 395.846 104.023 C 396.437 102.737 396.967 101.421 397.435 100.08 C 401.683 100.978 404.3 102.555 404.3 104.023 C 404.3 105.49 401.683 107.067 397.435 107.966 L 397.435 107.965 Z" style="filter: none; fill-rule: nonzero; paint-order: fill; fill: rgb(102, 21, 191); stroke: rgb(102, 21, 191); opacity: 1;"/>
  <path d="M 187.909 85.094 C 187.26 84.868 186.549 84.674 185.789 84.51 C 186.037 83.721 186.241 82.958 186.384 82.242 C 186.903 79.633 186.639 77.919 185.622 77.286 C 185.367 77.127 185.074 77.046 184.75 77.046 C 184.272 77.046 183.729 77.228 183.142 77.568 C 182.924 77.383 182.655 77.282 182.377 77.28 C 181.686 77.28 181.125 77.884 181.125 78.631 C 181.125 78.797 181.157 78.955 181.208 79.103 C 180.726 79.576 180.233 80.123 179.736 80.733 C 177.868 78.437 176.044 77.046 174.722 77.046 C 174.399 77.046 174.105 77.127 173.85 77.286 C 172.833 77.919 172.569 79.634 173.089 82.242 C 173.231 82.958 173.435 83.722 173.683 84.51 C 172.923 84.674 172.211 84.868 171.564 85.094 C 169.209 85.913 167.965 87.016 167.965 88.284 C 167.965 89.155 168.552 89.948 169.681 90.624 C 169.657 90.728 169.64 90.835 169.64 90.948 C 169.64 91.693 170.201 92.298 170.893 92.298 C 171.359 92.298 171.762 92.019 171.977 91.611 C 172.51 91.78 173.081 91.929 173.683 92.058 C 173.435 92.847 173.231 93.61 173.089 94.326 C 172.57 96.936 172.834 98.649 173.851 99.283 C 174.106 99.442 174.399 99.522 174.722 99.522 C 176.045 99.522 177.868 98.132 179.736 95.836 C 181.605 98.132 183.427 99.523 184.75 99.523 C 185.074 99.523 185.367 99.442 185.621 99.284 C 186.396 98.801 186.733 97.69 186.62 96.037 C 187.07 95.817 187.359 95.336 187.359 94.808 C 187.361 94.101 186.849 93.515 186.189 93.466 C 186.07 92.993 185.937 92.523 185.789 92.058 C 186.549 91.895 187.261 91.7 187.909 91.475 C 190.263 90.655 191.507 89.552 191.507 88.284 C 191.507 87.016 190.263 85.913 187.909 85.094 Z M 181.673 79.748 C 181.875 79.896 182.116 79.983 182.378 79.983 C 183.07 79.983 183.63 79.378 183.63 78.631 C 183.63 78.496 183.606 78.367 183.572 78.244 C 184.026 77.989 184.426 77.857 184.751 77.857 C 184.944 77.857 185.105 77.9 185.247 77.988 C 185.924 78.41 186.075 79.937 185.65 82.073 C 185.506 82.793 185.298 83.565 185.043 84.363 C 184.046 84.185 183.042 84.062 182.034 83.993 C 181.474 83.083 180.872 82.204 180.229 81.359 C 180.682 80.793 181.164 80.255 181.673 79.748 Z M 182.595 90.065 C 182.282 90.649 181.954 91.225 181.613 91.791 C 180.363 91.864 179.109 91.864 177.859 91.791 C 177.518 91.225 177.191 90.65 176.879 90.065 C 176.566 89.479 176.268 88.883 175.985 88.28 C 176.552 87.078 177.177 85.909 177.859 84.777 C 179.109 84.705 180.363 84.705 181.613 84.777 C 182.295 85.909 182.921 87.078 183.487 88.28 C 183.205 88.883 182.907 89.479 182.595 90.065 Z M 183.899 89.188 C 184.221 89.922 184.517 90.67 184.784 91.429 C 184.041 91.559 183.295 91.657 182.545 91.723 C 182.782 91.316 183.016 90.899 183.245 90.471 C 183.471 90.047 183.689 89.619 183.899 89.188 Z M 181.094 92.627 C 180.666 93.297 180.213 93.95 179.736 94.581 C 179.26 93.95 178.806 93.298 178.379 92.627 C 178.826 92.646 179.279 92.656 179.736 92.656 C 180.194 92.656 180.646 92.646 181.094 92.627 Z M 176.928 91.723 C 176.179 91.656 175.431 91.559 174.688 91.429 C 174.939 90.713 175.234 89.964 175.574 89.188 C 175.784 89.619 176.003 90.047 176.228 90.47 C 176.457 90.899 176.691 91.316 176.928 91.723 Z M 175.576 87.377 C 175.253 86.644 174.958 85.898 174.689 85.14 C 175.431 85.01 176.179 84.912 176.928 84.846 C 176.691 85.253 176.457 85.67 176.227 86.098 C 176.003 86.521 175.786 86.946 175.576 87.377 Z M 178.379 83.942 C 178.807 83.271 179.26 82.619 179.736 81.987 C 180.213 82.619 180.666 83.271 181.094 83.942 C 180.646 83.923 180.193 83.913 179.736 83.913 C 179.279 83.913 178.826 83.923 178.379 83.942 Z M 183.245 86.098 C 183.019 85.676 182.786 85.259 182.545 84.846 C 183.295 84.912 184.041 85.01 184.784 85.139 C 184.515 85.897 184.219 86.644 183.897 87.377 C 183.689 86.951 183.474 86.525 183.245 86.098 Z M 173.824 82.072 C 173.398 79.937 173.549 78.41 174.226 77.988 C 174.367 77.9 174.53 77.857 174.722 77.857 C 175.713 77.857 177.388 79.062 179.243 81.358 C 178.638 82.151 178.031 83.034 177.44 83.993 C 176.388 84.066 175.378 84.191 174.43 84.362 C 174.175 83.565 173.967 82.793 173.824 82.072 Z M 172.133 90.811 C 172.068 90.129 171.541 89.596 170.893 89.596 C 170.582 89.596 170.3 89.723 170.081 89.926 C 169.203 89.406 168.716 88.835 168.716 88.284 C 168.716 87.169 170.705 85.968 173.935 85.285 C 174.291 86.306 174.694 87.307 175.143 88.284 C 174.694 89.262 174.291 90.263 173.935 91.284 C 173.328 91.157 172.726 90.999 172.133 90.811 Z M 174.722 98.712 C 174.53 98.712 174.367 98.669 174.226 98.581 C 173.331 98.023 173.362 95.565 174.429 92.206 C 175.377 92.377 176.388 92.502 177.44 92.577 C 177.999 93.486 178.602 94.366 179.244 95.211 C 177.388 97.507 175.713 98.712 174.722 98.712 Z M 185.456 93.657 C 185.082 93.902 184.854 94.339 184.854 94.808 C 184.854 95.465 185.289 96.012 185.866 96.133 C 185.946 97.405 185.734 98.277 185.246 98.581 C 185.104 98.669 184.943 98.712 184.75 98.712 C 183.759 98.712 182.084 97.507 180.229 95.211 C 180.871 94.366 181.473 93.486 182.033 92.577 C 183.042 92.508 184.047 92.384 185.044 92.206 C 185.204 92.711 185.342 93.196 185.456 93.658 L 185.456 93.657 Z M 185.536 91.283 C 185.181 90.263 184.778 89.262 184.329 88.284 C 184.778 87.307 185.181 86.306 185.536 85.285 C 188.767 85.968 190.756 87.169 190.756 88.284 C 190.756 89.401 188.767 90.6 185.536 91.284 L 185.536 91.283 Z" style="fill: rgb(102, 21, 191); opacity: 1;"/>
  <path d="M 181.489 88.284 C 181.49 88.785 181.305 89.265 180.976 89.623 C 180.731 89.886 180.419 90.066 180.078 90.14 C 179.738 90.213 179.385 90.176 179.065 90.032 C 178.852 89.937 178.659 89.798 178.496 89.623 C 178.333 89.446 178.204 89.238 178.116 89.009 C 177.983 88.663 177.948 88.282 178.017 87.915 C 178.084 87.549 178.251 87.212 178.496 86.946 C 178.741 86.683 179.053 86.503 179.394 86.429 C 179.734 86.355 180.087 86.393 180.407 86.536 C 180.62 86.632 180.814 86.771 180.976 86.946 C 181.139 87.122 181.268 87.331 181.356 87.56 C 181.445 87.79 181.49 88.036 181.489 88.284 Z" style="fill: rgb(102, 21, 191); opacity: 1;"/>
  <text style="white-space: pre; fill: rgb(51, 51, 51); font-family: Arial, sans-serif; font-size: 25.3px;" x="462.094" y="166.065" transform="matrix(0.508294, 0, 0, 0.543185, -38.072235, -2.673599)"> </text>
  <text style="fill: rgb(102, 21, 191); font-family: &quot;Josefin Sans&quot;; font-size: 13.5px; white-space: pre;" transform="matrix(1.588357, 0, 0, 1.246131, -572.485474, -118.744904)"><tspan x="483.755" y="171.48" style="font-family: Kalam;">MIN</tspan><tspan>
</tspan></text>
</svg>